%TF.GenerationSoftware,KiCad,Pcbnew,(6.0.7)*%
%TF.CreationDate,2022-11-01T00:55:13-03:00*%
%TF.ProjectId,gerarduino,67657261-7264-4756-996e-6f2e6b696361,rev?*%
%TF.SameCoordinates,Original*%
%TF.FileFunction,Profile,NP*%
%FSLAX46Y46*%
G04 Gerber Fmt 4.6, Leading zero omitted, Abs format (unit mm)*
G04 Created by KiCad (PCBNEW (6.0.7)) date 2022-11-01 00:55:13*
%MOMM*%
%LPD*%
G01*
G04 APERTURE LIST*
%TA.AperFunction,Profile*%
%ADD10C,0.100000*%
%TD*%
G04 APERTURE END LIST*
D10*
X271526000Y-68580000D02*
G75*
G03*
X267970000Y-65024000I-3556000J0D01*
G01*
X88646000Y-75184000D02*
G75*
G03*
X86106000Y-77724000I0J-2540000D01*
G01*
X253751856Y-123445856D02*
G75*
G03*
X256291856Y-120905852I44J2539956D01*
G01*
X287000000Y-125984000D02*
G75*
G03*
X284460000Y-123444000I-2540000J0D01*
G01*
X147066000Y-90424000D02*
X136398000Y-90424000D01*
X259842000Y-65024000D02*
G75*
G03*
X256286000Y-68580000I0J-3556000D01*
G01*
X284460000Y-123444000D02*
X281940000Y-123444000D01*
X86106000Y-212344000D02*
X86106000Y-199644000D01*
X131318000Y-75184000D02*
X105918000Y-75184000D01*
X256286000Y-204724000D02*
X256286000Y-224282000D01*
X86106000Y-90424000D02*
X86106000Y-123444000D01*
X133858000Y-87884000D02*
G75*
G03*
X136398000Y-90424000I2540000J0D01*
G01*
X147066000Y-90424000D02*
X182626000Y-90424000D01*
X279146000Y-123444000D02*
X281940000Y-123444000D01*
X131318000Y-214884000D02*
X88646000Y-214884000D01*
X253745802Y-166623411D02*
X200406000Y-166624000D01*
X284460000Y-166624000D02*
G75*
G03*
X287000000Y-164084000I0J2540000D01*
G01*
X136398000Y-199644000D02*
G75*
G03*
X133858000Y-202184000I0J-2540000D01*
G01*
X147066000Y-199644000D02*
X182626000Y-199644000D01*
X271525798Y-120911102D02*
G75*
G03*
X274065802Y-123451102I2540002J2D01*
G01*
X182626000Y-90424000D02*
X200406000Y-123444000D01*
X267970000Y-65024000D02*
X259842000Y-65024000D01*
X133858000Y-87884000D02*
X133858000Y-77724000D01*
X86106000Y-166624000D02*
X86106000Y-199644000D01*
X271526000Y-72644000D02*
X271526000Y-68580000D01*
X256285802Y-169163411D02*
X256286000Y-204724000D01*
X274078492Y-166625292D02*
G75*
G03*
X271538492Y-169165265I8J-2540008D01*
G01*
X279146000Y-123444000D02*
X274065802Y-123451102D01*
X271525802Y-120911102D02*
X271526000Y-72644000D01*
X256286000Y-68580000D02*
X256286000Y-72644000D01*
X86106000Y-212344000D02*
G75*
G03*
X88646000Y-214884000I2540000J0D01*
G01*
X136398000Y-199644000D02*
X147066000Y-199644000D01*
X256286000Y-72644000D02*
X256291856Y-120905852D01*
X253751856Y-123445852D02*
X200406000Y-123444000D01*
X259842000Y-227838000D02*
X267970000Y-227838000D01*
X88646000Y-75184000D02*
X105918000Y-75184000D01*
X271538492Y-169165265D02*
X271526000Y-204724000D01*
X182626000Y-199644000D02*
X200406000Y-166624000D01*
X271526000Y-204724000D02*
X271526000Y-224282000D01*
X279146000Y-166624000D02*
X281940000Y-166624000D01*
X256286000Y-224282000D02*
G75*
G03*
X259842000Y-227838000I3556000J0D01*
G01*
X131318000Y-214884000D02*
G75*
G03*
X133858000Y-212344000I0J2540000D01*
G01*
X256285789Y-169163411D02*
G75*
G03*
X253745802Y-166623411I-2539989J11D01*
G01*
X287000000Y-125984000D02*
X287000000Y-164084000D01*
X267970000Y-227838000D02*
G75*
G03*
X271526000Y-224282000I0J3556000D01*
G01*
X133858000Y-202184000D02*
X133858000Y-212344000D01*
X133858000Y-77724000D02*
G75*
G03*
X131318000Y-75184000I-2540000J0D01*
G01*
X86106000Y-77724000D02*
X86106000Y-90424000D01*
X284460000Y-166624000D02*
X281940000Y-166624000D01*
X86106000Y-123444000D02*
X86106000Y-166624000D01*
X279146000Y-166624000D02*
X274078492Y-166625265D01*
M02*
