M48
; DRILL file {KiCad (6.0.7)} date Thu Oct 27 22:53:04 2022
; FORMAT={-:-/ absolute / inch / decimal}
; #@! TF.CreationDate,2022-10-27T22:53:04-03:00
; #@! TF.GenerationSoftware,Kicad,Pcbnew,(6.0.7)
; #@! TF.FileFunction,Plated,1,2,PTH
FMAT,2
INCH
; #@! TA.AperFunction,Plated,PTH,ComponentDrill
T1C0.0300
; #@! TA.AperFunction,Plated,PTH,ComponentDrill
T2C0.0394
; #@! TA.AperFunction,Plated,PTH,ComponentDrill
T3C0.0402
; #@! TA.AperFunction,Plated,PTH,ComponentDrill
T4C0.0591
%
G90
G05
T1
X4.27Y-7.06
X4.37Y-4.36
X4.37Y-7.06
X4.47Y-4.36
X5.01Y-4.4675
X5.01Y-7.0675
X5.11Y-4.4675
X5.11Y-7.0675
X5.86Y-5.3175
X5.86Y-5.4175
X5.86Y-5.5175
X5.86Y-5.6175
X5.86Y-5.7175
X5.86Y-5.8175
X5.86Y-6.1175
X5.86Y-6.2175
X5.86Y-6.3175
X6.41Y-7.36
X6.51Y-7.36
X11.0Y-5.26
X11.0Y-5.36
X11.0Y-5.46
X11.0Y-5.56
X11.0Y-5.66
X11.0Y-5.76
X11.0Y-5.86
X11.0Y-5.96
X11.0Y-6.06
X11.0Y-6.16
X11.0Y-6.26
T2
X8.05Y-5.41
X8.05Y-6.01
X8.15Y-5.41
X8.15Y-6.01
X8.25Y-5.41
X8.25Y-6.01
X8.35Y-5.41
X8.35Y-6.01
X8.45Y-5.41
X8.45Y-6.01
X8.55Y-5.41
X8.55Y-6.01
X8.65Y-5.41
X8.65Y-6.01
X8.75Y-5.41
X8.75Y-6.01
X8.85Y-5.41
X8.85Y-6.01
X8.95Y-5.41
X8.95Y-6.01
X9.05Y-5.41
X9.05Y-6.01
X9.15Y-5.41
X9.15Y-6.01
X9.25Y-5.41
X9.25Y-6.01
X9.35Y-5.41
X9.35Y-6.01
X9.45Y-5.41
X9.45Y-6.01
T3
X10.2882Y-8.79
X10.29Y-2.74
X10.3882Y-8.79
X10.39Y-2.74
X10.4882Y-8.79
X10.49Y-2.74
T4
X3.682Y-4.9619
X3.682Y-6.4658
X5.1742Y-4.9698
X5.1742Y-6.4658
T0
M30
